<svg xmlns="http://www.w3.org/2000/svg" viewBox="0 0 128 128">
  <rect width="128" height="128" rx="13" fill="#060d14"/>
  <g transform="translate(15.4,48.6) scale(0.034050,-0.034050)"><path d="M536 0C657 0 746 42 808 110C862 169 895 249 895 338C895 436 853 525 786 587C726 642 645 676 536 676H394C285 676 204 642 144 587C77 525 35 436 35 338C35 249 68 169 122 110C184 42 273 0 394 0ZM536 497C597 497 635 480 664 453C695 424 714 382 714 337C714 296 698 258 672 230C643 198 600 178 536 178H394C330 178 287 198 258 230C232 258 216 296 216 337C216 382 235 424 266 453C295 480 333 497 394 497Z" fill="#97D700"/></g><g transform="translate(47.1,48.6) scale(0.034050,-0.034050)"><path d="M59 176V0H241V176Z" fill="#97D700"/></g><g transform="translate(57.3,48.6) scale(0.034050,-0.034050)"><path d="M41 676V497H442C449 497 453 493 453 488C453 482 450 479 443 475L326 401C299 384 285 369 285 341C285 310 298 282 351 282H487C532 282 548 259 548 228C548 197 532 173 487 173H39V0H541C679 0 757 95 757 200C757 323 685 383 581 394C576 395 574 398 574 402C574 404 575 408 578 410L688 490C721 515 739 540 739 577C739 633 701 676 626 676Z" fill="#97D700"/></g><g transform="translate(83.5,48.6) scale(0.034050,-0.034050)"><path d="M94 676C65 676 50 662 50 634V43C50 14 65 0 94 0H459C580 0 669 42 731 110C785 169 818 249 818 338C818 436 776 525 709 587C649 642 568 676 459 676ZM459 497C520 497 558 480 587 453C618 424 637 382 637 337C637 296 621 258 595 230C566 198 523 178 459 178H244C235 178 231 182 231 192V483C231 493 235 497 244 497Z" fill="#97D700"/></g><line x1="15" y1="67.8" x2="113" y2="67.8" stroke="#97D700" stroke-width="1.9" opacity="0.45"/><g transform="translate(36.3,92.2) scale(0.034050,-0.034050)"><path d="M748 178H394C330 178 287 198 258 230C232 258 216 296 216 337C216 382 235 424 266 453C295 480 333 497 394 497H748V676H394C285 676 204 642 144 587C77 525 35 436 35 338C35 249 68 169 122 110C184 42 273 0 394 0H748Z" fill="#97D700"/></g><g transform="translate(63.0,92.2) scale(0.034050,-0.034050)"><path d="M94 676C65 676 50 662 50 634V0H231V170H542C646 170 715 206 761 261C798 306 820 363 820 423C820 491 792 556 745 603C700 648 638 676 542 676ZM231 336V483C231 493 236 497 244 497H546C585 497 608 485 623 467C634 453 640 436 640 416C640 397 634 381 624 368C609 348 586 336 546 336Z" fill="#97D700"/></g>
</svg>